<?xml version="1.0" standalone="no"?>
<!DOCTYPE svg PUBLIC "-//W3C//DTD SVG 20010904//EN"
 "http://www.w3.org/TR/2001/REC-SVG-20010904/DTD/svg10.dtd">
<svg version="1.0" xmlns="http://www.w3.org/2000/svg"
 width="700.000000pt" height="700.000000pt" viewBox="0 0 700.000000 700.000000"
 preserveAspectRatio="xMidYMid meet">
<metadata>
Created by potrace 1.11, written by Peter Selinger 2001-2013
</metadata>
<g transform="translate(0.000000,700.000000) scale(0.100000,-0.100000)"
fill="#000000" stroke="none">
<path d="M1303 5725 c2 -236 7 -443 11 -460 16 -70 38 -142 52 -172 8 -17 14
-35 14 -40 0 -11 97 -174 108 -183 4 -3 20 -23 37 -45 16 -22 32 -42 36 -45 3
-3 25 -34 48 -69 74 -115 72 -98 71 -726 -2 -986 -8 -3180 -9 -3192 -1 -6 -28
-14 -63 -18 -35 -4 -72 -9 -83 -11 -11 -3 -38 -7 -60 -9 -22 -3 -67 -10 -100
-15 -33 -5 -82 -12 -110 -16 -27 -3 -57 -7 -65 -9 -8 -2 -51 -8 -95 -15 -44
-6 -89 -13 -100 -15 -11 -2 -28 -4 -37 -4 -9 -1 -26 -17 -38 -37 -25 -39 -23
-85 4 -126 l16 -24 447 2 c247 2 643 4 881 5 430 2 432 2 433 23 0 12 2 172 4
356 3 330 11 622 20 730 19 215 31 302 66 458 13 61 63 200 89 252 62 121 165
240 282 323 64 46 235 137 256 137 18 0 189 -87 242 -123 281 -189 411 -471
446 -965 3 -48 8 -107 10 -132 2 -25 7 -272 10 -550 4 -278 8 -507 10 -509 2
-2 394 -5 871 -6 964 -3 903 -7 924 65 9 30 8 43 -5 72 -19 40 -45 56 -101 63
-34 4 -116 15 -235 31 -19 3 -46 7 -60 9 -14 3 -47 7 -75 10 -27 3 -61 8 -75
10 -14 2 -45 7 -70 10 -25 3 -54 7 -65 10 -11 2 -32 4 -48 4 l-28 1 1 1872 c1
1115 5 1893 11 1922 13 71 49 137 134 251 109 146 177 293 200 435 4 25 9 54
11 65 4 17 6 448 5 742 l-1 92 -257 -2 -258 -2 0 -247 c0 -241 -1 -248 -20
-249 -62 -3 -380 3 -385 7 -3 3 -5 114 -6 247 l0 242 -257 2 -257 2 0 -249 0
-249 -207 2 -208 2 0 237 c-1 131 -4 240 -8 244 -3 4 -119 8 -257 9 l-250 2 0
-247 0 -247 -205 -1 -205 0 -1 121 c0 67 0 179 1 249 l1 127 -260 -1 -259 0
-1 -232 c0 -127 -1 -238 -1 -247 0 -14 -24 -16 -205 -17 l-205 0 0 248 0 248
-261 -2 -260 -1 4 -430z"/>
</g>
</svg>
