<?xml version="1.0" encoding="UTF-8" standalone="no"?>
<svg
   xmlns:dc="http://purl.org/dc/elements/1.1/"
   xmlns:cc="http://creativecommons.org/ns#"
   xmlns:rdf="http://www.w3.org/1999/02/22-rdf-syntax-ns#"
   xmlns:svg="http://www.w3.org/2000/svg"
   xmlns="http://www.w3.org/2000/svg"
   xmlns:sodipodi="http://sodipodi.sourceforge.net/DTD/sodipodi-0.dtd"
   xmlns:inkscape="http://www.inkscape.org/namespaces/inkscape"
   style="height: 512px; width: 512px;"
   viewBox="0 0 512 512"
   id="svg2"
   version="1.1"
   inkscape:version="0.91 r13725"
   sodipodi:docname="camp.svg">
  <metadata
     id="metadata14">
    <rdf:RDF>
      <cc:Work
         rdf:about="">
        <dc:format>image/svg+xml</dc:format>
        <dc:type
           rdf:resource="http://purl.org/dc/dcmitype/StillImage" />
        <dc:title></dc:title>
      </cc:Work>
    </rdf:RDF>
  </metadata>
  <defs
     id="defs12" />
  <sodipodi:namedview
     pagecolor="#ffffff"
     bordercolor="#666666"
     borderopacity="1"
     objecttolerance="10"
     gridtolerance="20"
     guidetolerance="20"
     inkscape:pageopacity="0"
     inkscape:pageshadow="2"
     inkscape:window-width="1920"
     inkscape:window-height="1057"
     id="namedview10"
     showgrid="true"
     showguides="true"
     inkscape:guide-bbox="true"
     inkscape:zoom="1.3037281"
     inkscape:cx="142.80992"
     inkscape:cy="236.42542"
     inkscape:window-x="-8"
     inkscape:window-y="-8"
     inkscape:window-maximized="1"
     inkscape:current-layer="svg2">
    <inkscape:grid
       type="xygrid"
       id="grid4188" />
  </sodipodi:namedview>
  <path
     d="M0 0h512v512H0z"
     fill="transparent"
     fill-opacity="0"
     id="path4" />
  <g
     class=""
     style="touch-action:none;fill:none;fill-opacity:1"
     transform="translate(0,0)"
     id="g6">
    <path
       d="m 247,28 0,80 18,0 0,-80 z m 35,0 0,64 80,-32 z m -26,96 C 208,172 112,236 64,252 64,316 48,460 32,492 l 180.70984,0 C 226.40875,472.16484 256,348 256,300 c 0,48 28.05719,176 44.05719,192 L 480,492 C 464,460 448,316 448,252 400,236 304,172 256,124 Z m -144,176 57.7561,0 0,80 L 112,380 Z"
       id="path8"
       style="fill:none;fill-opacity:1"
       inkscape:connector-curvature="0"
       sodipodi:nodetypes="ccccccccccccccccccccccc" />
  </g>
  <path
     style="fill:#ffffff;fill-opacity:1;fill-rule:evenodd;stroke:none;stroke-width:1px;stroke-linecap:butt;stroke-linejoin:miter;stroke-opacity:1"
     d="m 250.07562,112.23883 c 0,0 -55.07647,80.76158 -191.015073,133.43695 -9.061394,7.32463 10.938603,41.32411 -19.175781,226.80274 l 169.073444,0.0898 C 240,412 249.40039,291.89058 249.40039,291.89058 c 0,0 10.59961,110.10942 50.51367,180.42383 l 156.11914,0.4961 C 434.99934,321.99961 455.00088,253.00041 444.87891,245.67578 310.00088,193.00041 250.07562,112.23883 250.07562,112.23883 Z m -131.82171,204.93109 52.47458,0 0,70 -52.47458,0 z m 208.81389,-0.40625 51.9322,0 0,69.9661 -51.9322,0 z"
     id="path4184"
     inkscape:connector-curvature="0"
     sodipodi:nodetypes="ccccccccccccccccccc" />
</svg>
