<?xml version="1.0" encoding="UTF-8" standalone="no"?>
<svg
   xmlns:dc="http://purl.org/dc/elements/1.1/"
   xmlns:cc="http://creativecommons.org/ns#"
   xmlns:rdf="http://www.w3.org/1999/02/22-rdf-syntax-ns#"
   xmlns:svg="http://www.w3.org/2000/svg"
   xmlns="http://www.w3.org/2000/svg"
   xmlns:sodipodi="http://sodipodi.sourceforge.net/DTD/sodipodi-0.dtd"
   xmlns:inkscape="http://www.inkscape.org/namespaces/inkscape"
   style="height: 512px; width: 512px;"
   viewBox="0 0 512 512"
   id="svg2"
   version="1.1"
   inkscape:version="0.91 r13725"
   sodipodi:docname="keep.svg">
  <metadata
     id="metadata14">
    <rdf:RDF>
      <cc:Work
         rdf:about="">
        <dc:format>image/svg+xml</dc:format>
        <dc:type
           rdf:resource="http://purl.org/dc/dcmitype/StillImage" />
        <dc:title></dc:title>
      </cc:Work>
    </rdf:RDF>
  </metadata>
  <defs
     id="defs12" />
  <sodipodi:namedview
     pagecolor="#ffffff"
     bordercolor="#666666"
     borderopacity="1"
     objecttolerance="10"
     gridtolerance="10"
     guidetolerance="10"
     inkscape:pageopacity="0"
     inkscape:pageshadow="2"
     inkscape:window-width="1920"
     inkscape:window-height="1057"
     id="namedview10"
     showgrid="true"
     showguides="true"
     inkscape:guide-bbox="true"
     inkscape:zoom="1.3037281"
     inkscape:cx="203.9111"
     inkscape:cy="278.86169"
     inkscape:window-x="-8"
     inkscape:window-y="-8"
     inkscape:window-maximized="1"
     inkscape:current-layer="svg2"
     inkscape:snap-bbox="true"
     inkscape:object-nodes="true">
    <inkscape:grid
       type="xygrid"
       id="grid4188" />
  </sodipodi:namedview>
  <path
     d="M0 0h512v512H0z"
     fill="transparent"
     fill-opacity="0"
     id="path4" />
  <g
     class=""
     style="touch-action:none;fill:none;fill-opacity:1"
     transform="translate(0,0)"
     id="g6">
    <path
       d="m 247,28 0,80 18,0 0,-80 z m 35,0 0,64 80,-32 z m -26,96 C 208,172 112,236 64,252 64,316 48,460 32,492 l 180.70984,0 C 226.40875,472.16484 256,348 256,300 c 0,48 28.05719,176 44.05719,192 L 480,492 C 464,460 448,316 448,252 400,236 304,172 256,124 Z m -144,176 57.7561,0 0,80 L 112,380 Z"
       id="path8"
       style="fill:none;fill-opacity:1"
       inkscape:connector-curvature="0"
       sodipodi:nodetypes="ccccccccccccccccccccccc" />
  </g>
  <path
     style="fill:#ffffff;fill-opacity:1;fill-rule:evenodd;stroke:none;stroke-width:1px;stroke-linecap:butt;stroke-linejoin:miter;stroke-opacity:0.96279069"
     d="m 95.201335,61.76476 -0.120196,57.7567 C 100,159.19687 120,159.19687 123.00053,181.14003 l -0.58027,273.47699 -53.349033,7.76867 c -4.468274,4.99376 -4.415958,7.94771 -0.147191,13.46112 l 128.786424,-0.6637 C 197.98157,366.53803 197.8939,330.975 250,308.45063 c 53.4609,22.52437 52.03911,58.08786 52.03148,167.12674 l 127.891,0.4226 c 6.90236,-3.92758 4.97816,-11.80413 -0.26805,-14.23826 l -51.61413,-7.10496 0.33874,-273.5848 C 380,159.19687 400,159.19687 404.57608,119.73651 c 0,0 0.24851,-12.59583 0.015,-58.158313 -4.61939,-0.0028 -37.70249,0 -37.70249,0 l -0.18986,36.726566 -29.97228,-0.421796 0,-36.30477 -37.70249,0 0,36.30477 -30.162,0 L 268.67228,62 231.1595,61.578197 l 0,36.30477 -30.162,0 0,-36.30477 -37.7025,0 0,36.30477 -30.162,0 0,-36.30477 z"
     id="path4200"
     inkscape:connector-curvature="0"
     sodipodi:nodetypes="cccccccccccccccccccccccccccccccc" />
</svg>
