<?xml version="1.0" encoding="UTF-8" standalone="no"?>
<svg
   xmlns:dc="http://purl.org/dc/elements/1.1/"
   xmlns:cc="http://creativecommons.org/ns#"
   xmlns:rdf="http://www.w3.org/1999/02/22-rdf-syntax-ns#"
   xmlns:svg="http://www.w3.org/2000/svg"
   xmlns="http://www.w3.org/2000/svg"
   xmlns:sodipodi="http://sodipodi.sourceforge.net/DTD/sodipodi-0.dtd"
   xmlns:inkscape="http://www.inkscape.org/namespaces/inkscape"
   style="height: 512px; width: 512px;"
   viewBox="0 0 512 512"
   id="svg2"
   version="1.1"
   inkscape:version="0.91 r13725"
   sodipodi:docname="tower.svg">
  <metadata
     id="metadata14">
    <rdf:RDF>
      <cc:Work
         rdf:about="">
        <dc:format>image/svg+xml</dc:format>
        <dc:type
           rdf:resource="http://purl.org/dc/dcmitype/StillImage" />
        <dc:title></dc:title>
      </cc:Work>
    </rdf:RDF>
  </metadata>
  <defs
     id="defs12" />
  <sodipodi:namedview
     pagecolor="#ffffff"
     bordercolor="#666666"
     borderopacity="1"
     objecttolerance="10"
     gridtolerance="20"
     guidetolerance="20"
     inkscape:pageopacity="0"
     inkscape:pageshadow="2"
     inkscape:window-width="1920"
     inkscape:window-height="1057"
     id="namedview10"
     showgrid="true"
     showguides="true"
     inkscape:guide-bbox="true"
     inkscape:zoom="1.3037281"
     inkscape:cx="192.29249"
     inkscape:cy="261.93914"
     inkscape:window-x="-8"
     inkscape:window-y="-8"
     inkscape:window-maximized="1"
     inkscape:current-layer="svg2">
    <inkscape:grid
       type="xygrid"
       id="grid4188" />
  </sodipodi:namedview>
  <path
     d="M0 0h512v512H0z"
     fill="transparent"
     fill-opacity="0"
     id="path4" />
  <g
     class=""
     style="touch-action:none;fill:none;fill-opacity:1"
     transform="translate(0,0)"
     id="g6">
    <path
       d="m 247,28 0,80 18,0 0,-80 z m 35,0 0,64 80,-32 z m -26,96 C 208,172 112,236 64,252 64,316 48,460 32,492 l 180.70984,0 C 226.40875,472.16484 256,348 256,300 c 0,48 28.05719,176 44.05719,192 L 480,492 C 464,460 448,316 448,252 400,236 304,172 256,124 Z m -144,176 57.7561,0 0,80 L 112,380 Z"
       id="path8"
       style="fill:none;fill-opacity:1"
       inkscape:connector-curvature="0"
       sodipodi:nodetypes="ccccccccccccccccccccccc" />
  </g>
  <path
     style="fill:#ffffff;fill-opacity:1;fill-rule:evenodd;stroke:none;stroke-width:1px;stroke-linecap:butt;stroke-linejoin:miter;stroke-opacity:0.96279069"
     d="m 245.02344,56.796875 c 0,0 -64.02404,13.846698 -109.36719,45.162105 l -0.27148,129.9004 c 10.34315,14.05634 14.61554,15.14157 34.89648,30.23242 l -0.38477,205.56054 -35.375,5.34961 c -2.96285,3.43878 -2.92816,5.47292 -0.0976,9.26953 l 85.39648,-0.45703 c 0.17979,-74.81461 -4.00728,-93.4579 24.73047,-94.61523 28.00801,0.61496 25.44842,19.80093 25.44336,94.88672 l 84.80274,0.29101 c 4.57686,-2.70459 3.30095,-8.1285 -0.17774,-9.80468 l -34.22461,-4.89258 0.22461,-205.63477 c 14.381,-20.04432 19.10925,-14.89237 34.41211,-29.8457 0,0 0.67395,-93.28119 0.27148,-129.57422 C 326.8368,79.076866 245.02344,56.796875 245.02344,56.796875 Z m -19.95508,55.626955 40.96484,0 0,114.05078 -40.96484,0 z m 65.62695,0 40.96485,0 0,114.05078 -40.96485,0 z m -132.50976,0.35547 40.96679,0 0,114.05078 -40.96679,0 z"
     id="path4200"
     inkscape:connector-curvature="0"
     sodipodi:nodetypes="cccccccccccccccccccccccccccccccc" />
</svg>
